<svg width="19" height="19" viewBox="0 0 19 19" fill="none" xmlns="http://www.w3.org/2000/svg">
<g clip-path="url(#clip0_10313_2653)">
<g clip-path="url(#clip1_10313_2653)">
<g clip-path="url(#clip2_10313_2653)">
<path d="M17.5898 9.69995C17.5898 8.66895 17.4063 7.68045 17.0698 6.76595C16.8398 9.46045 15.4033 10.8444 13.9023 10.1999C12.4963 9.59595 13.4438 7.24145 13.5138 6.11795C13.6318 4.21345 13.5078 2.03345 10.0483 0.220947C11.4858 2.97095 10.2148 4.67945 8.88184 4.78345C7.40284 4.89895 6.04834 3.51245 6.54834 1.26245C4.92934 2.45545 4.88234 4.46345 5.38184 5.76245C5.90284 7.11645 5.36084 8.24145 4.09034 8.36645C2.67034 8.50645 1.88134 6.84595 2.60884 4.19995C1.34984 5.68245 0.589844 7.60245 0.589844 9.69995C0.589844 14.3944 4.39534 18.1999 9.08984 18.1999C13.7843 18.1999 17.5898 14.3944 17.5898 9.69995Z" fill="#F4900C"/>
<path d="M14.2868 12.1994C14.3608 13.7414 13.0063 14.3459 12.2773 14.0539C11.2243 13.6324 11.5068 12.9084 11.2358 11.4084C10.9648 9.90845 9.92334 8.86695 8.38184 8.40845C9.50684 11.5749 7.75834 12.7419 6.84184 12.9504C5.90584 13.1634 4.96534 12.9499 4.85784 10.9469C3.76584 12.0339 3.08984 13.5379 3.08984 15.1999C3.08984 15.3839 3.10134 15.5649 3.11734 15.7449C4.65234 17.2619 6.76084 18.1999 9.08984 18.1999C11.4188 18.1999 13.5273 17.2619 15.0623 15.7449C15.0783 15.5649 15.0898 15.3839 15.0898 15.1999C15.0898 14.1064 14.7978 13.0819 14.2868 12.1994Z" fill="#FFCC4D"/>
</g>
</g>
</g>
<defs>
<clipPath id="clip0_10313_2653">
<rect width="18" height="18" fill="white" transform="translate(0.0898438 0.199951)"/>
</clipPath>
<clipPath id="clip1_10313_2653">
<rect width="18" height="18" fill="white" transform="translate(0.0898438 0.199951)"/>
</clipPath>
<clipPath id="clip2_10313_2653">
<rect width="18" height="18" fill="white" transform="translate(0.0898438 0.199951)"/>
</clipPath>
</defs>
</svg>
