<svg width="19" height="20" viewBox="0 0 19 20" fill="none" xmlns="http://www.w3.org/2000/svg">
<path d="M17.6063 2.30718C17.5437 2.27588 17.4811 2.25632 17.4185 2.2485C17.3559 2.24067 17.2855 2.23676 17.2072 2.23676C17.1446 2.25241 17.0781 2.27197 17.0077 2.29545C16.9373 2.31892 16.8786 2.34631 16.8316 2.37761C15.5014 3.37921 14.2415 3.75873 13.0521 3.51615C11.8627 3.27357 10.6186 2.87059 9.3196 2.30718C8.6623 2.02548 7.98152 1.75161 7.27727 1.48556C6.57302 1.21951 5.84529 1.05127 5.09409 0.980844C4.34289 0.910419 3.56038 0.969107 2.74658 1.15691C1.94843 1.34471 1.13463 1.75161 0.305176 2.37761H0.281701L0.258226 2.42456L0.1878 2.49499L0.164325 2.51846L0.14085 2.54193C0.14085 2.54193 0.136938 2.54585 0.129113 2.55367C0.121288 2.5615 0.117375 2.56541 0.117375 2.56541L0.0939002 2.61236C0.0939002 2.61236 0.0939002 2.61627 0.0939002 2.6241C0.0939002 2.63192 0.0939002 2.63584 0.0939002 2.63584C0.0782502 2.65149 0.0704252 2.65931 0.0704252 2.65931C0.0704252 2.65931 0.0704252 2.66714 0.0704252 2.68279C0.0547751 2.68279 0.0469501 2.6867 0.0469501 2.69452C0.0469501 2.70235 0.0469501 2.70626 0.0469501 2.70626C0.0469501 2.72191 0.0469501 2.72974 0.0469501 2.72974C0.0469501 2.72974 0.0469501 2.73756 0.0469501 2.75321C0.0469501 2.75321 0.0430376 2.75712 0.0352126 2.76495C0.0273876 2.77277 0.0234751 2.77669 0.0234751 2.77669C0.0234751 2.77669 0.0234751 2.7806 0.0234751 2.78842C0.0234751 2.79625 0.0234751 2.80016 0.0234751 2.80016C0.0234751 2.81581 0.0195625 2.82755 0.0117375 2.83537C0.00391251 2.8432 0 2.84711 0 2.84711V2.89406C0 2.89406 0 2.89797 0 2.9058C0 2.91362 0 2.92536 0 2.94101V18.7632C0 18.8571 0.0195626 18.951 0.0586876 19.0449C0.0978127 19.1388 0.148675 19.2249 0.211276 19.3031C0.289526 19.3657 0.375601 19.4166 0.469501 19.4557C0.563401 19.4948 0.657302 19.5144 0.751202 19.5144C0.845102 19.5144 0.939002 19.4948 1.0329 19.4557C1.1268 19.4166 1.21288 19.3657 1.29113 19.3031C1.35373 19.2249 1.40459 19.1388 1.44372 19.0449C1.48284 18.951 1.5024 18.8571 1.5024 18.7632V14.6316C2.77006 13.7865 3.97511 13.4931 5.11756 13.7513C6.26002 14.0095 7.45724 14.4125 8.70925 14.9602C9.4761 15.2732 10.2703 15.5745 11.092 15.864C11.9136 16.1536 12.7704 16.2983 13.6625 16.2983C14.3041 16.2983 14.9654 16.1927 15.6461 15.9814C16.3269 15.7701 17.0194 15.3984 17.7237 14.8663C17.7706 14.8194 17.8137 14.7764 17.8528 14.7372C17.8919 14.6981 17.9271 14.6472 17.9584 14.5846C17.9741 14.5377 17.9897 14.4868 18.0054 14.4321C18.021 14.3773 18.0288 14.3186 18.0288 14.256V2.98796C18.0288 2.92536 18.021 2.85885 18.0054 2.78842C17.9897 2.718 17.9584 2.65149 17.9115 2.58889C17.8802 2.52629 17.8371 2.47151 17.7824 2.42456C17.7276 2.37761 17.6689 2.33849 17.6063 2.30718Z" fill="#2EBB77"/>
</svg>
