<svg width="22" height="23" viewBox="0 0 22 23" fill="none" xmlns="http://www.w3.org/2000/svg">
<path d="M0 1.79517C0 1.52433 0.0989583 1.28996 0.296875 1.09204C0.494792 0.894125 0.729167 0.795166 1 0.795166H9C9.27083 0.795166 9.50521 0.894125 9.70312 1.09204C9.90104 1.28996 10 1.52433 10 1.79517V9.79517C10 10.066 9.90104 10.3004 9.70312 10.4983C9.50521 10.6962 9.27083 10.7952 9 10.7952H1C0.729167 10.7952 0.494792 10.6962 0.296875 10.4983C0.0989583 10.3004 0 10.066 0 9.79517V1.79517ZM2 2.79517V8.79517H8V2.79517H2ZM12 1.79517C12 1.52433 12.099 1.28996 12.2969 1.09204C12.4948 0.894125 12.7292 0.795166 13 0.795166H21C21.2708 0.795166 21.5052 0.894125 21.7031 1.09204C21.901 1.28996 22 1.52433 22 1.79517V9.79517C22 10.066 21.901 10.3004 21.7031 10.4983C21.5052 10.6962 21.2708 10.7952 21 10.7952H13C12.7292 10.7952 12.4948 10.6962 12.2969 10.4983C12.099 10.3004 12 10.066 12 9.79517V1.79517ZM14 2.79517V8.79517H20V2.79517H14ZM0 13.7952C0 13.5243 0.0989583 13.29 0.296875 13.092C0.494792 12.8941 0.729167 12.7952 1 12.7952H9C9.27083 12.7952 9.50521 12.8941 9.70312 13.092C9.90104 13.29 10 13.5243 10 13.7952V21.7952C10 22.066 9.90104 22.3004 9.70312 22.4983C9.50521 22.6962 9.27083 22.7952 9 22.7952H1C0.729167 22.7952 0.494792 22.6962 0.296875 22.4983C0.0989583 22.3004 0 22.066 0 21.7952V13.7952ZM2 14.7952V20.7952H8V14.7952H2ZM12 13.7952C12 13.5243 12.099 13.29 12.2969 13.092C12.4948 12.8941 12.7292 12.7952 13 12.7952H21C21.2708 12.7952 21.5052 12.8941 21.7031 13.092C21.901 13.29 22 13.5243 22 13.7952V21.7952C22 22.066 21.901 22.3004 21.7031 22.4983C21.5052 22.6962 21.2708 22.7952 21 22.7952H13C12.7292 22.7952 12.4948 22.6962 12.2969 22.4983C12.099 22.3004 12 22.066 12 21.7952V13.7952ZM14 14.7952V20.7952H20V14.7952H14Z" fill="black"/>
</svg>
