<svg width="18" height="36" viewBox="0 0 18 36" fill="none" xmlns="http://www.w3.org/2000/svg">
<path d="M9.25 14.0078C11.7109 14.0078 13.7422 16.0391 13.7422 18.5C13.7422 21 11.7109 22.9922 9.25 22.9922C6.75 22.9922 4.75781 21 4.75781 18.5C4.75781 16.0391 6.75 14.0078 9.25 14.0078ZM9.25 21.4297C10.8516 21.4297 12.1406 20.1406 12.1406 18.5C12.1406 16.8984 10.8516 15.6094 9.25 15.6094C7.60938 15.6094 6.32031 16.8984 6.32031 18.5C6.32031 20.1406 7.64844 21.4297 9.25 21.4297ZM14.9531 13.8516C14.9531 14.4375 14.4844 14.9062 13.8984 14.9062C13.3125 14.9062 12.8438 14.4375 12.8438 13.8516C12.8438 13.2656 13.3125 12.7969 13.8984 12.7969C14.4844 12.7969 14.9531 13.2656 14.9531 13.8516ZM17.9219 14.9062C18 16.3516 18 20.6875 17.9219 22.1328C17.8438 23.5391 17.5312 24.75 16.5156 25.8047C15.5 26.8203 14.25 27.1328 12.8438 27.2109C11.3984 27.2891 7.0625 27.2891 5.61719 27.2109C4.21094 27.1328 3 26.8203 1.94531 25.8047C0.929688 24.75 0.617188 23.5391 0.539062 22.1328C0.460938 20.6875 0.460938 16.3516 0.539062 14.9062C0.617188 13.5 0.929688 12.25 1.94531 11.2344C3 10.2188 4.21094 9.90625 5.61719 9.82812C7.0625 9.75 11.3984 9.75 12.8438 9.82812C14.25 9.90625 15.5 10.2188 16.5156 11.2344C17.5312 12.25 17.8438 13.5 17.9219 14.9062ZM16.0469 23.6562C16.5156 22.5234 16.3984 19.7891 16.3984 18.5C16.3984 17.25 16.5156 14.5156 16.0469 13.3438C15.7344 12.6016 15.1484 11.9766 14.4062 11.7031C13.2344 11.2344 10.5 11.3516 9.25 11.3516C7.96094 11.3516 5.22656 11.2344 4.09375 11.7031C3.3125 12.0156 2.72656 12.6016 2.41406 13.3438C1.94531 14.5156 2.0625 17.25 2.0625 18.5C2.0625 19.7891 1.94531 22.5234 2.41406 23.6562C2.72656 24.4375 3.3125 25.0234 4.09375 25.3359C5.22656 25.8047 7.96094 25.6875 9.25 25.6875C10.5 25.6875 13.2344 25.8047 14.4062 25.3359C15.1484 25.0234 15.7734 24.4375 16.0469 23.6562Z" fill="#9B9B9B"/>
</svg>
