<svg width="24" height="25" viewBox="0 0 24 25" fill="none" xmlns="http://www.w3.org/2000/svg">
<rect y="0.590088" width="24" height="24" rx="12" fill="#E2F5F2"/>
<path d="M17.0391 6.80103C17.1797 6.95728 17.25 7.13696 17.25 7.34009C17.25 7.54321 17.1797 7.7229 17.0391 7.87915L6.53906 18.3792C6.38281 18.5198 6.20312 18.5901 6 18.5901C5.79688 18.5901 5.61719 18.5198 5.46094 18.3792L0.210938 13.1292C0.0703125 12.9729 0 12.7932 0 12.5901C0 12.387 0.0703125 12.2073 0.210938 12.051C0.367188 11.9104 0.546875 11.8401 0.75 11.8401C0.953125 11.8401 1.13281 11.9104 1.28906 12.051L6 16.7854L15.9609 6.80103C16.1172 6.6604 16.2969 6.59009 16.5 6.59009C16.7031 6.59009 16.8828 6.6604 17.0391 6.80103Z" fill="#11B196"/>
</svg>
