<svg width="24" height="19" viewBox="0 0 24 19" fill="none" xmlns="http://www.w3.org/2000/svg">
<path d="M0 9.79517C0 9.52433 0.0989583 9.28996 0.296875 9.09204C0.494792 8.89412 0.729167 8.79517 1 8.79517H23C23.2708 8.79517 23.5052 8.89412 23.7031 9.09204C23.901 9.28996 24 9.52433 24 9.79517C24 10.066 23.901 10.3004 23.7031 10.4983C23.5052 10.6962 23.2708 10.7952 23 10.7952H1C0.729167 10.7952 0.494792 10.6962 0.296875 10.4983C0.0989583 10.3004 0 10.066 0 9.79517ZM0 1.79517C0 1.52433 0.0989583 1.28996 0.296875 1.09204C0.494792 0.894125 0.729167 0.795166 1 0.795166H23C23.2708 0.795166 23.5052 0.894125 23.7031 1.09204C23.901 1.28996 24 1.52433 24 1.79517C24 2.066 23.901 2.30037 23.7031 2.49829C23.5052 2.69621 23.2708 2.79517 23 2.79517H1C0.729167 2.79517 0.494792 2.69621 0.296875 2.49829C0.0989583 2.30037 0 2.066 0 1.79517ZM0 17.7952C0 17.5243 0.0989583 17.29 0.296875 17.092C0.494792 16.8941 0.729167 16.7952 1 16.7952H23C23.2708 16.7952 23.5052 16.8941 23.7031 17.092C23.901 17.29 24 17.5243 24 17.7952C24 18.066 23.901 18.3004 23.7031 18.4983C23.5052 18.6962 23.2708 18.7952 23 18.7952H1C0.729167 18.7952 0.494792 18.6962 0.296875 18.4983C0.0989583 18.3004 0 18.066 0 17.7952Z" fill="#7E7E7E"/>
</svg>
