<svg width="1920" height="223" viewBox="0 0 1920 223" fill="none" xmlns="http://www.w3.org/2000/svg">
<rect width="1920" height="223" fill="#F5F5F5"/>
<path d="M922.411 104.48C920.518 104.48 918.758 104.133 917.131 103.44C915.531 102.747 914.144 101.787 912.971 100.56C911.824 99.3067 910.984 97.8533 910.451 96.2L914.971 94.24C915.691 95.9467 916.731 97.2933 918.091 98.28C919.451 99.24 920.984 99.72 922.691 99.72C923.651 99.72 924.478 99.5733 925.171 99.28C925.891 98.96 926.438 98.5333 926.811 98C927.211 97.4667 927.411 96.8267 927.411 96.08C927.411 95.2 927.144 94.48 926.611 93.92C926.104 93.3333 925.331 92.88 924.291 92.56L918.571 90.72C916.251 90 914.504 88.92 913.331 87.48C912.158 86.04 911.571 84.3467 911.571 82.4C911.571 80.6933 911.984 79.1867 912.811 77.88C913.664 76.5733 914.838 75.56 916.331 74.84C917.851 74.0933 919.584 73.72 921.531 73.72C923.318 73.72 924.958 74.04 926.451 74.68C927.944 75.2933 929.224 76.16 930.291 77.28C931.384 78.3733 932.198 79.6667 932.731 81.16L928.251 83.16C927.664 81.6667 926.784 80.52 925.611 79.72C924.438 78.8933 923.078 78.48 921.531 78.48C920.624 78.48 919.824 78.64 919.131 78.96C918.438 79.2533 917.891 79.68 917.491 80.24C917.118 80.7733 916.931 81.4133 916.931 82.16C916.931 82.9867 917.198 83.72 917.731 84.36C918.264 84.9733 919.078 85.4533 920.171 85.8L925.651 87.52C928.024 88.2933 929.798 89.36 930.971 90.72C932.171 92.08 932.771 93.76 932.771 95.76C932.771 97.4667 932.331 98.9733 931.451 100.28C930.571 101.587 929.358 102.613 927.811 103.36C926.264 104.107 924.464 104.48 922.411 104.48ZM937.229 104V73.72H942.469V86.52L941.749 85.76C942.256 84.4533 943.083 83.4667 944.229 82.8C945.403 82.1067 946.763 81.76 948.309 81.76C949.909 81.76 951.323 82.1067 952.549 82.8C953.803 83.4933 954.776 84.4667 955.469 85.72C956.163 86.9467 956.509 88.3733 956.509 90V104H951.269V91.24C951.269 90.28 951.083 89.4533 950.709 88.76C950.336 88.0667 949.816 87.5333 949.149 87.16C948.509 86.76 947.749 86.56 946.869 86.56C946.016 86.56 945.256 86.76 944.589 87.16C943.923 87.5333 943.403 88.0667 943.029 88.76C942.656 89.4533 942.469 90.28 942.469 91.24V104H937.229ZM971.58 104.48C969.447 104.48 967.5 103.987 965.74 103C964.007 102.013 962.62 100.667 961.58 98.96C960.567 97.2533 960.06 95.3067 960.06 93.12C960.06 90.9333 960.567 88.9867 961.58 87.28C962.62 85.5733 964.007 84.2267 965.74 83.24C967.474 82.2533 969.42 81.76 971.58 81.76C973.714 81.76 975.647 82.2533 977.38 83.24C979.114 84.2267 980.487 85.5733 981.5 87.28C982.54 88.96 983.06 90.9067 983.06 93.12C983.06 95.3067 982.54 97.2533 981.5 98.96C980.46 100.667 979.074 102.013 977.34 103C975.607 103.987 973.687 104.48 971.58 104.48ZM971.58 99.68C972.754 99.68 973.78 99.4 974.66 98.84C975.567 98.28 976.274 97.5067 976.78 96.52C977.314 95.5067 977.58 94.3733 977.58 93.12C977.58 91.84 977.314 90.72 976.78 89.76C976.274 88.7733 975.567 88 974.66 87.44C973.78 86.8533 972.754 86.56 971.58 86.56C970.38 86.56 969.327 86.8533 968.42 87.44C967.514 88 966.794 88.7733 966.26 89.76C965.754 90.72 965.5 91.84 965.5 93.12C965.5 94.3733 965.754 95.5067 966.26 96.52C966.794 97.5067 967.514 98.28 968.42 98.84C969.327 99.4 970.38 99.68 971.58 99.68ZM987.034 112V82.24H991.954V86.56L991.474 85.48C992.221 84.3067 993.234 83.4 994.514 82.76C995.794 82.0933 997.274 81.76 998.954 81.76C1001.01 81.76 1002.86 82.2667 1004.51 83.28C1006.17 84.2933 1007.47 85.6533 1008.43 87.36C1009.42 89.0667 1009.91 90.9867 1009.91 93.12C1009.91 95.2267 1009.43 97.1467 1008.47 98.88C1007.51 100.613 1006.21 101.987 1004.55 103C1002.9 103.987 1001.02 104.48 998.914 104.48C997.341 104.48 995.887 104.173 994.554 103.56C993.247 102.92 992.207 102.013 991.434 100.84L992.274 99.8V112H987.034ZM998.314 99.68C999.514 99.68 1000.58 99.4 1001.51 98.84C1002.45 98.28 1003.17 97.5067 1003.67 96.52C1004.21 95.5333 1004.47 94.4 1004.47 93.12C1004.47 91.84 1004.21 90.72 1003.67 89.76C1003.17 88.7733 1002.45 88 1001.51 87.44C1000.58 86.8533 999.514 86.56 998.314 86.56C997.167 86.56 996.127 86.84 995.194 87.4C994.287 87.96 993.567 88.7467 993.034 89.76C992.527 90.7467 992.274 91.8667 992.274 93.12C992.274 94.4 992.527 95.5333 993.034 96.52C993.567 97.5067 994.287 98.28 995.194 98.84C996.127 99.4 997.167 99.68 998.314 99.68Z" fill="black"/>
<path d="M902.409 146V134.825H903.879V139.805H909.474V134.825H910.959V146H909.474V141.155H903.879V146H902.409ZM917.115 146.18C916.335 146.18 915.63 146 915 145.64C914.37 145.27 913.87 144.765 913.5 144.125C913.13 143.485 912.945 142.76 912.945 141.95C912.945 141.14 913.125 140.42 913.485 139.79C913.855 139.16 914.355 138.66 914.985 138.29C915.615 137.92 916.325 137.735 917.115 137.735C917.895 137.735 918.6 137.92 919.23 138.29C919.86 138.65 920.355 139.145 920.715 139.775C921.085 140.405 921.27 141.13 921.27 141.95C921.27 142.77 921.08 143.5 920.7 144.14C920.32 144.77 919.815 145.27 919.185 145.64C918.565 146 917.875 146.18 917.115 146.18ZM917.115 144.83C917.615 144.83 918.065 144.705 918.465 144.455C918.875 144.205 919.195 143.86 919.425 143.42C919.665 142.98 919.785 142.49 919.785 141.95C919.785 141.4 919.665 140.915 919.425 140.495C919.195 140.065 918.875 139.725 918.465 139.475C918.065 139.215 917.615 139.085 917.115 139.085C916.605 139.085 916.145 139.215 915.735 139.475C915.335 139.725 915.015 140.065 914.775 140.495C914.535 140.915 914.415 141.4 914.415 141.95C914.415 142.49 914.535 142.98 914.775 143.42C915.015 143.86 915.335 144.205 915.735 144.455C916.145 144.705 916.605 144.83 917.115 144.83ZM923.089 146V137.915H924.454V139.565L924.259 139.31C924.459 138.8 924.779 138.41 925.219 138.14C925.659 137.87 926.154 137.735 926.704 137.735C927.334 137.735 927.899 137.91 928.399 138.26C928.909 138.61 929.259 139.07 929.449 139.64L929.059 139.655C929.269 139.025 929.624 138.55 930.124 138.23C930.624 137.9 931.179 137.735 931.789 137.735C932.349 137.735 932.854 137.865 933.304 138.125C933.764 138.385 934.129 138.745 934.399 139.205C934.669 139.665 934.804 140.185 934.804 140.765V146H933.394V141.215C933.394 140.765 933.314 140.385 933.154 140.075C932.994 139.765 932.774 139.525 932.494 139.355C932.224 139.175 931.904 139.085 931.534 139.085C931.174 139.085 930.849 139.175 930.559 139.355C930.279 139.525 930.054 139.77 929.884 140.09C929.724 140.4 929.644 140.775 929.644 141.215V146H928.234V141.215C928.234 140.765 928.154 140.385 927.994 140.075C927.834 139.765 927.614 139.525 927.334 139.355C927.064 139.175 926.744 139.085 926.374 139.085C926.014 139.085 925.689 139.175 925.399 139.355C925.119 139.525 924.894 139.77 924.724 140.09C924.564 140.4 924.484 140.775 924.484 141.215V146H923.089ZM940.505 146.18C939.725 146.18 939.03 145.995 938.42 145.625C937.81 145.255 937.33 144.75 936.98 144.11C936.63 143.46 936.455 142.735 936.455 141.935C936.455 141.125 936.625 140.405 936.965 139.775C937.315 139.145 937.785 138.65 938.375 138.29C938.975 137.92 939.645 137.735 940.385 137.735C940.985 137.735 941.515 137.845 941.975 138.065C942.445 138.275 942.84 138.565 943.16 138.935C943.49 139.295 943.74 139.71 943.91 140.18C944.09 140.64 944.18 141.12 944.18 141.62C944.18 141.73 944.17 141.855 944.15 141.995C944.14 142.125 944.125 142.25 944.105 142.37H937.475V141.17H943.295L942.635 141.71C942.725 141.19 942.675 140.725 942.485 140.315C942.295 139.905 942.015 139.58 941.645 139.34C941.275 139.1 940.855 138.98 940.385 138.98C939.915 138.98 939.485 139.1 939.095 139.34C938.705 139.58 938.4 139.925 938.18 140.375C937.97 140.815 937.885 141.34 937.925 141.95C937.885 142.54 937.975 143.06 938.195 143.51C938.425 143.95 938.745 144.295 939.155 144.545C939.575 144.785 940.03 144.905 940.52 144.905C941.06 144.905 941.515 144.78 941.885 144.53C942.255 144.28 942.555 143.96 942.785 143.57L943.955 144.17C943.795 144.54 943.545 144.88 943.205 145.19C942.875 145.49 942.48 145.73 942.02 145.91C941.57 146.09 941.065 146.18 940.505 146.18Z" fill="#7E7E7E"/>
<rect x="952.75" y="141" width="20" height="1" fill="#7E7E7E"/>
<path d="M985.995 146.18C985.285 146.18 984.635 146.05 984.045 145.79C983.455 145.52 982.955 145.155 982.545 144.695C982.135 144.235 981.84 143.72 981.66 143.15L982.935 142.625C983.205 143.345 983.605 143.9 984.135 144.29C984.675 144.67 985.305 144.86 986.025 144.86C986.465 144.86 986.85 144.79 987.18 144.65C987.51 144.51 987.765 144.315 987.945 144.065C988.135 143.805 988.23 143.505 988.23 143.165C988.23 142.695 988.095 142.325 987.825 142.055C987.565 141.775 987.18 141.565 986.67 141.425L984.615 140.795C983.805 140.545 983.185 140.15 982.755 139.61C982.325 139.07 982.11 138.45 982.11 137.75C982.11 137.14 982.255 136.605 982.545 136.145C982.845 135.675 983.255 135.31 983.775 135.05C984.305 134.78 984.905 134.645 985.575 134.645C986.245 134.645 986.85 134.765 987.39 135.005C987.94 135.245 988.405 135.57 988.785 135.98C989.165 136.38 989.445 136.84 989.625 137.36L988.365 137.885C988.125 137.255 987.765 136.78 987.285 136.46C986.805 136.13 986.24 135.965 985.59 135.965C985.19 135.965 984.835 136.035 984.525 136.175C984.225 136.305 983.99 136.5 983.82 136.76C983.66 137.01 983.58 137.31 983.58 137.66C983.58 138.07 983.71 138.435 983.97 138.755C984.23 139.075 984.625 139.32 985.155 139.49L987.03 140.045C987.91 140.315 988.575 140.7 989.025 141.2C989.475 141.7 989.7 142.32 989.7 143.06C989.7 143.67 989.54 144.21 989.22 144.68C988.91 145.15 988.475 145.52 987.915 145.79C987.365 146.05 986.725 146.18 985.995 146.18ZM991.687 146V134.645H993.082V139.49L992.827 139.355C993.027 138.845 993.347 138.45 993.787 138.17C994.237 137.88 994.762 137.735 995.362 137.735C995.942 137.735 996.457 137.865 996.907 138.125C997.367 138.385 997.727 138.745 997.987 139.205C998.257 139.665 998.392 140.185 998.392 140.765V146H996.982V141.215C996.982 140.765 996.897 140.385 996.727 140.075C996.567 139.765 996.342 139.525 996.052 139.355C995.762 139.175 995.427 139.085 995.047 139.085C994.677 139.085 994.342 139.175 994.042 139.355C993.742 139.525 993.507 139.77 993.337 140.09C993.167 140.4 993.082 140.775 993.082 141.215V146H991.687ZM1004.23 146.18C1003.45 146.18 1002.74 146 1002.11 145.64C1001.48 145.27 1000.98 144.765 1000.61 144.125C1000.24 143.485 1000.06 142.76 1000.06 141.95C1000.06 141.14 1000.24 140.42 1000.6 139.79C1000.97 139.16 1001.47 138.66 1002.1 138.29C1002.73 137.92 1003.44 137.735 1004.23 137.735C1005.01 137.735 1005.71 137.92 1006.34 138.29C1006.97 138.65 1007.47 139.145 1007.83 139.775C1008.2 140.405 1008.38 141.13 1008.38 141.95C1008.38 142.77 1008.19 143.5 1007.81 144.14C1007.43 144.77 1006.93 145.27 1006.3 145.64C1005.68 146 1004.99 146.18 1004.23 146.18ZM1004.23 144.83C1004.73 144.83 1005.18 144.705 1005.58 144.455C1005.99 144.205 1006.31 143.86 1006.54 143.42C1006.78 142.98 1006.9 142.49 1006.9 141.95C1006.9 141.4 1006.78 140.915 1006.54 140.495C1006.31 140.065 1005.99 139.725 1005.58 139.475C1005.18 139.215 1004.73 139.085 1004.23 139.085C1003.72 139.085 1003.26 139.215 1002.85 139.475C1002.45 139.725 1002.13 140.065 1001.89 140.495C1001.65 140.915 1001.53 141.4 1001.53 141.95C1001.53 142.49 1001.65 142.98 1001.89 143.42C1002.13 143.86 1002.45 144.205 1002.85 144.455C1003.26 144.705 1003.72 144.83 1004.23 144.83ZM1010.2 149V137.915H1011.57V139.655L1011.39 139.31C1011.69 138.83 1012.1 138.45 1012.62 138.17C1013.14 137.88 1013.73 137.735 1014.4 137.735C1015.16 137.735 1015.84 137.92 1016.44 138.29C1017.05 138.66 1017.53 139.165 1017.88 139.805C1018.23 140.435 1018.41 141.155 1018.41 141.965C1018.41 142.755 1018.23 143.47 1017.88 144.11C1017.53 144.75 1017.05 145.255 1016.44 145.625C1015.84 145.995 1015.16 146.18 1014.39 146.18C1013.74 146.18 1013.14 146.035 1012.6 145.745C1012.07 145.455 1011.66 145.045 1011.37 144.515L1011.6 144.275V149H1010.2ZM1014.28 144.83C1014.79 144.83 1015.25 144.705 1015.65 144.455C1016.05 144.205 1016.36 143.865 1016.58 143.435C1016.81 142.995 1016.92 142.505 1016.92 141.965C1016.92 141.405 1016.81 140.915 1016.58 140.495C1016.36 140.065 1016.05 139.725 1015.65 139.475C1015.25 139.215 1014.79 139.085 1014.28 139.085C1013.77 139.085 1013.31 139.21 1012.9 139.46C1012.5 139.71 1012.18 140.055 1011.94 140.495C1011.71 140.925 1011.6 141.415 1011.6 141.965C1011.6 142.505 1011.71 142.995 1011.94 143.435C1012.18 143.865 1012.5 144.205 1012.9 144.455C1013.31 144.705 1013.77 144.83 1014.28 144.83Z" fill="black"/>
</svg>
