<svg width="8" height="13" viewBox="0 0 8 13" fill="none" xmlns="http://www.w3.org/2000/svg">
<path d="M0.517578 0.280762C0.634766 0.175293 0.769531 0.122559 0.921875 0.122559C1.07422 0.122559 1.20898 0.175293 1.32617 0.280762L6.95117 5.90576C7.05664 6.02295 7.10938 6.15771 7.10938 6.31006C7.10938 6.4624 7.05664 6.59717 6.95117 6.71436L1.32617 12.3394C1.20898 12.4448 1.07422 12.4976 0.921875 12.4976C0.769531 12.4976 0.634766 12.4448 0.517578 12.3394C0.412109 12.2222 0.359375 12.0874 0.359375 11.9351C0.359375 11.7827 0.412109 11.6479 0.517578 11.5308L5.75586 6.31006L0.517578 1.08936C0.412109 0.972168 0.359375 0.837402 0.359375 0.685059C0.359375 0.532715 0.412109 0.397949 0.517578 0.280762Z" fill="#2EBB77"/>
</svg>
