<svg width="17" height="18" viewBox="0 0 17 18" fill="none" xmlns="http://www.w3.org/2000/svg">
<path d="M7.1875 2.125C6.36719 2.125 5.59896 2.28125 4.88281 2.59375C4.15365 2.90625 3.52214 3.32943 2.98828 3.86328C2.45443 4.39714 2.03125 5.02865 1.71875 5.75781C1.40625 6.47396 1.25 7.24219 1.25 8.0625C1.25 8.88281 1.40625 9.65104 1.71875 10.3672C2.03125 11.0964 2.45443 11.7279 2.98828 12.2617C3.52214 12.7956 4.15365 13.2188 4.88281 13.5312C5.59896 13.8438 6.36719 14 7.1875 14C8.00781 14 8.77604 13.8438 9.49219 13.5312C10.2214 13.2188 10.8529 12.7956 11.3867 12.2617C11.9206 11.7279 12.3438 11.0964 12.6562 10.3672C12.9688 9.65104 13.125 8.88281 13.125 8.0625C13.125 7.24219 12.9688 6.47396 12.6562 5.75781C12.3438 5.02865 11.9206 4.39714 11.3867 3.86328C10.8529 3.32943 10.2214 2.90625 9.49219 2.59375C8.77604 2.28125 8.00781 2.125 7.1875 2.125ZM0 8.0625C0 7.07292 0.188802 6.14193 0.566406 5.26953C0.94401 4.39714 1.45833 3.63542 2.10938 2.98438C2.76042 2.33333 3.52214 1.81901 4.39453 1.44141C5.26693 1.0638 6.19792 0.875 7.1875 0.875C8.17708 0.875 9.10807 1.0638 9.98047 1.44141C10.8529 1.81901 11.6146 2.33333 12.2656 2.98438C12.9167 3.63542 13.431 4.39714 13.8086 5.26953C14.1862 6.14193 14.375 7.07292 14.375 8.0625C14.375 9.05208 14.1862 9.98307 13.8086 10.8555C13.431 11.7279 12.9167 12.4896 12.2656 13.1406C11.6146 13.7917 10.8529 14.306 9.98047 14.6836C9.10807 15.0612 8.17708 15.25 7.1875 15.25C6.19792 15.25 5.26693 15.0612 4.39453 14.6836C3.52214 14.306 2.76042 13.7917 2.10938 13.1406C1.45833 12.4896 0.94401 11.7279 0.566406 10.8555C0.188802 9.98307 0 9.05208 0 8.0625ZM11.3867 12.2617C11.5039 12.1445 11.6504 12.0859 11.8262 12.0859C12.002 12.0859 12.1484 12.1445 12.2656 12.2617L16.0742 16.0508C16.1914 16.181 16.25 16.3307 16.25 16.5C16.25 16.6693 16.1914 16.819 16.0742 16.9492C15.944 17.0664 15.7943 17.125 15.625 17.125C15.4557 17.125 15.306 17.0664 15.1758 16.9492L11.3867 13.1406C11.2695 13.0234 11.2109 12.877 11.2109 12.7012C11.2109 12.5254 11.2695 12.3789 11.3867 12.2617Z" fill="black"/>
</svg>
