<svg width="96" height="32" viewBox="0 0 96 32" fill="none" xmlns="http://www.w3.org/2000/svg">
<rect x="0.310547" width="95.69" height="32" rx="7" fill="black"/>
<path d="M25.5716 22.18C24.8616 22.18 24.2016 22.05 23.5916 21.79C22.9916 21.53 22.4716 21.17 22.0316 20.71C21.6016 20.24 21.2866 19.695 21.0866 19.075L22.7816 18.34C23.0516 18.98 23.4416 19.485 23.9516 19.855C24.4616 20.215 25.0366 20.395 25.6766 20.395C26.0366 20.395 26.3466 20.34 26.6066 20.23C26.8766 20.11 27.0816 19.95 27.2216 19.75C27.3716 19.55 27.4466 19.31 27.4466 19.03C27.4466 18.7 27.3466 18.43 27.1466 18.22C26.9566 18 26.6666 17.83 26.2766 17.71L24.1316 17.02C23.2616 16.75 22.6066 16.345 22.1666 15.805C21.7266 15.265 21.5066 14.63 21.5066 13.9C21.5066 13.26 21.6616 12.695 21.9716 12.205C22.2916 11.715 22.7316 11.335 23.2916 11.065C23.8616 10.785 24.5116 10.645 25.2416 10.645C25.9116 10.645 26.5266 10.765 27.0866 11.005C27.6466 11.235 28.1266 11.56 28.5266 11.98C28.9366 12.39 29.2416 12.875 29.4416 13.435L27.7616 14.185C27.5416 13.625 27.2116 13.195 26.7716 12.895C26.3316 12.585 25.8216 12.43 25.2416 12.43C24.9016 12.43 24.6016 12.49 24.3416 12.61C24.0816 12.72 23.8766 12.88 23.7266 13.09C23.5866 13.29 23.5166 13.53 23.5166 13.81C23.5166 14.12 23.6166 14.395 23.8166 14.635C24.0166 14.865 24.3216 15.045 24.7316 15.175L26.7866 15.82C27.6766 16.11 28.3416 16.51 28.7816 17.02C29.2316 17.53 29.4566 18.16 29.4566 18.91C29.4566 19.55 29.2916 20.115 28.9616 20.605C28.6316 21.095 28.1766 21.48 27.5966 21.76C27.0166 22.04 26.3416 22.18 25.5716 22.18ZM31.1286 22V13.84H33.0936V22H31.1286ZM31.1286 12.925V10.825H33.0936V12.925H31.1286ZM38.8679 25.3C38.2579 25.3 37.6929 25.2 37.1729 25C36.6529 24.8 36.2029 24.52 35.8229 24.16C35.4529 23.81 35.1829 23.395 35.0129 22.915L36.8429 22.225C36.9629 22.605 37.1979 22.91 37.5479 23.14C37.9079 23.38 38.3479 23.5 38.8679 23.5C39.2679 23.5 39.6179 23.425 39.9179 23.275C40.2279 23.125 40.4679 22.905 40.6379 22.615C40.8079 22.335 40.8929 21.995 40.8929 21.595V19.735L41.2679 20.185C40.9879 20.675 40.6129 21.045 40.1429 21.295C39.6729 21.545 39.1379 21.67 38.5379 21.67C37.7779 21.67 37.0979 21.495 36.4979 21.145C35.8979 20.795 35.4279 20.315 35.0879 19.705C34.7479 19.095 34.5779 18.41 34.5779 17.65C34.5779 16.88 34.7479 16.195 35.0879 15.595C35.4279 14.995 35.8929 14.525 36.4829 14.185C37.0729 13.835 37.7429 13.66 38.4929 13.66C39.1029 13.66 39.6379 13.79 40.0979 14.05C40.5679 14.3 40.9579 14.665 41.2679 15.145L40.9979 15.64V13.84H42.8579V21.595C42.8579 22.305 42.6829 22.94 42.3329 23.5C41.9929 24.06 41.5229 24.5 40.9229 24.82C40.3329 25.14 39.6479 25.3 38.8679 25.3ZM38.7779 19.855C39.1979 19.855 39.5629 19.765 39.8729 19.585C40.1929 19.395 40.4429 19.135 40.6229 18.805C40.8029 18.475 40.8929 18.095 40.8929 17.665C40.8929 17.245 40.7979 16.87 40.6079 16.54C40.4279 16.2 40.1779 15.935 39.8579 15.745C39.5479 15.555 39.1879 15.46 38.7779 15.46C38.3679 15.46 37.9979 15.555 37.6679 15.745C37.3379 15.935 37.0779 16.2 36.8879 16.54C36.7079 16.87 36.6179 17.245 36.6179 17.665C36.6179 18.085 36.7079 18.46 36.8879 18.79C37.0779 19.12 37.3329 19.38 37.6529 19.57C37.9829 19.76 38.3579 19.855 38.7779 19.855ZM44.693 22V13.84H46.538V15.445L46.388 15.16C46.578 14.67 46.888 14.3 47.318 14.05C47.758 13.79 48.268 13.66 48.848 13.66C49.448 13.66 49.978 13.79 50.438 14.05C50.908 14.31 51.273 14.675 51.533 15.145C51.793 15.605 51.923 16.14 51.923 16.75V22H49.958V17.215C49.958 16.855 49.888 16.545 49.748 16.285C49.608 16.025 49.413 15.825 49.163 15.685C48.923 15.535 48.638 15.46 48.308 15.46C47.988 15.46 47.703 15.535 47.453 15.685C47.203 15.825 47.008 16.025 46.868 16.285C46.728 16.545 46.658 16.855 46.658 17.215V22H44.693ZM60.7206 22.18C59.8606 22.18 59.0956 22 58.4256 21.64C57.7656 21.28 57.2456 20.785 56.8656 20.155C56.4856 19.525 56.2956 18.81 56.2956 18.01V10.825H58.3356V17.905C58.3356 18.365 58.4356 18.78 58.6356 19.15C58.8456 19.52 59.1306 19.81 59.4906 20.02C59.8506 20.22 60.2606 20.32 60.7206 20.32C61.1906 20.32 61.6006 20.22 61.9506 20.02C62.3106 19.81 62.5906 19.52 62.7906 19.15C63.0006 18.78 63.1056 18.365 63.1056 17.905V10.825H65.1456V18.01C65.1456 18.81 64.9556 19.525 64.5756 20.155C64.1956 20.785 63.6706 21.28 63.0006 21.64C62.3406 22 61.5806 22.18 60.7206 22.18ZM67.0172 25V13.84H68.8622V15.46L68.6822 15.055C68.9622 14.615 69.3422 14.275 69.8222 14.035C70.3022 13.785 70.8572 13.66 71.4872 13.66C72.2572 13.66 72.9522 13.85 73.5722 14.23C74.1922 14.61 74.6822 15.12 75.0422 15.76C75.4122 16.4 75.5972 17.12 75.5972 17.92C75.5972 18.71 75.4172 19.43 75.0572 20.08C74.6972 20.73 74.2072 21.245 73.5872 21.625C72.9672 21.995 72.2622 22.18 71.4722 22.18C70.8822 22.18 70.3372 22.065 69.8372 21.835C69.3472 21.595 68.9572 21.255 68.6672 20.815L68.9822 20.425V25H67.0172ZM71.2472 20.38C71.6972 20.38 72.0972 20.275 72.4472 20.065C72.7972 19.855 73.0672 19.565 73.2572 19.195C73.4572 18.825 73.5572 18.4 73.5572 17.92C73.5572 17.44 73.4572 17.02 73.2572 16.66C73.0672 16.29 72.7972 16 72.4472 15.79C72.0972 15.57 71.6972 15.46 71.2472 15.46C70.8172 15.46 70.4272 15.565 70.0772 15.775C69.7372 15.985 69.4672 16.28 69.2672 16.66C69.0772 17.03 68.9822 17.45 68.9822 17.92C68.9822 18.4 69.0772 18.825 69.2672 19.195C69.4672 19.565 69.7372 19.855 70.0772 20.065C70.4272 20.275 70.8172 20.38 71.2472 20.38Z" fill="white"/>
</svg>
