<svg width="18" height="18" viewBox="0 0 18 18" fill="none" xmlns="http://www.w3.org/2000/svg">
<path d="M8.03703 0.484278C8.14119 0.406153 8.25513 0.347559 8.37882 0.308496C8.50252 0.269434 8.62947 0.249903 8.75968 0.249903C8.88989 0.249903 9.01684 0.269434 9.14054 0.308496C9.26424 0.347559 9.37817 0.406153 9.48234 0.484278C9.59953 0.549381 9.69718 0.634018 9.77531 0.738184C9.85343 0.84235 9.91203 0.953028 9.95109 1.07022L11.6698 5.38662C11.6698 5.39964 11.6698 5.40615 11.6698 5.40615C11.6698 5.40615 11.6698 5.40941 11.6698 5.41592C11.6698 5.42243 11.6763 5.42568 11.6894 5.42568L16.2987 5.71865C16.8977 5.75772 17.2818 6.06045 17.4511 6.62686C17.6204 7.19326 17.4836 7.65876 17.0409 8.02334L13.5058 10.9726C13.5058 10.9726 13.5025 10.9758 13.496 10.9823C13.4895 10.9888 13.4862 10.9921 13.4862 10.9921C13.4862 10.9921 13.4862 10.9953 13.4862 11.0019C13.4862 11.0084 13.4862 11.0116 13.4862 11.0116L14.6386 15.5038C14.7688 16.0507 14.606 16.5064 14.1503 16.871C13.6946 17.2356 13.2128 17.2551 12.705 16.9296L8.75968 14.4296L5.08781 16.7538C4.52791 17.1054 3.99731 17.0793 3.49601 16.6757C2.99471 16.272 2.82218 15.7707 2.97843 15.1718L4.03312 11.0116C4.03312 11.0116 4.03312 11.0084 4.03312 11.0019C4.03312 10.9953 4.03312 10.9921 4.03312 10.9921C4.03312 10.9921 4.02986 10.9888 4.02335 10.9823C4.01684 10.9758 4.01359 10.9726 4.01359 10.9726L0.478433 8.02334C0.0357242 7.65876 -0.100995 7.19326 0.0682763 6.62686C0.237547 6.06045 0.621662 5.75772 1.22062 5.71865L5.82999 5.42568C5.84302 5.42568 5.84953 5.42243 5.84953 5.41592C5.84953 5.40941 5.84953 5.40615 5.84953 5.40615C5.84953 5.40615 5.84953 5.39964 5.84953 5.38662L7.56828 1.07022C7.60734 0.953028 7.66593 0.84235 7.74406 0.738184C7.82218 0.634018 7.91984 0.549381 8.03703 0.484278ZM9.44328 13.3749L13.3691 15.8749C13.3821 15.8749 13.3886 15.8749 13.3886 15.8749C13.3886 15.8749 13.3951 15.8749 13.4081 15.8749C13.4081 15.8619 13.4114 15.8554 13.4179 15.8554C13.4244 15.8554 13.4277 15.8489 13.4277 15.8358C13.4277 15.8358 13.4277 15.8326 13.4277 15.8261C13.4277 15.8196 13.4277 15.8163 13.4277 15.8163L12.2753 11.3241C12.2493 11.2069 12.2395 11.0865 12.246 10.9628C12.2525 10.8391 12.2753 10.7187 12.3144 10.6015C12.3404 10.4843 12.3892 10.3736 12.4609 10.2694C12.5325 10.1653 12.6138 10.0741 12.705 9.996L16.2402 7.06631C16.2402 7.05329 16.2434 7.04678 16.2499 7.04678C16.2564 7.04678 16.2597 7.04678 16.2597 7.04678C16.2597 7.04678 16.2597 7.04027 16.2597 7.02725C16.2597 7.02725 16.2597 7.02399 16.2597 7.01748C16.2597 7.01097 16.2597 7.0012 16.2597 6.98818C16.2597 6.98818 16.2564 6.98493 16.2499 6.97842C16.2434 6.97191 16.2402 6.96865 16.2402 6.96865C16.2402 6.96865 16.2336 6.96865 16.2206 6.96865L11.6308 6.67568C11.6308 6.67568 11.6275 6.67568 11.621 6.67568C11.6145 6.67568 11.6112 6.67568 11.6112 6.67568C11.4941 6.66266 11.3769 6.63662 11.2597 6.59756C11.1425 6.5585 11.0383 6.4999 10.9472 6.42178C10.843 6.34365 10.7551 6.25902 10.6835 6.16787C10.6119 6.07673 10.55 5.97256 10.498 5.85537L8.77921 1.51943C8.77921 1.50641 8.77921 1.4999 8.77921 1.4999C8.77921 1.4999 8.77596 1.4999 8.76945 1.4999C8.76294 1.4999 8.75968 1.4999 8.75968 1.4999C8.75968 1.4999 8.75643 1.4999 8.74992 1.4999C8.74341 1.4999 8.74015 1.4999 8.74015 1.4999C8.74015 1.4999 8.74015 1.50641 8.74015 1.51943L7.0214 5.85537C6.96932 5.97256 6.90747 6.07673 6.83585 6.16787C6.76424 6.25902 6.67635 6.34365 6.57218 6.42178C6.48104 6.4999 6.37687 6.5585 6.25968 6.59756C6.14249 6.63662 6.02531 6.66266 5.90812 6.67568L1.29874 6.96865C1.28572 6.96865 1.27921 6.96865 1.27921 6.96865C1.27921 6.96865 1.27596 6.97191 1.26945 6.97842C1.26294 6.98493 1.25968 6.98818 1.25968 6.98818C1.25968 7.0012 1.25968 7.01097 1.25968 7.01748C1.25968 7.02399 1.25968 7.02725 1.25968 7.02725C1.25968 7.04027 1.25968 7.04678 1.25968 7.04678C1.25968 7.04678 1.26294 7.04678 1.26945 7.04678C1.27596 7.04678 1.27921 7.05329 1.27921 7.06631L4.81437 9.996C4.90552 10.0741 4.9869 10.1653 5.05851 10.2694C5.13013 10.3736 5.17895 10.4843 5.20499 10.6015C5.24406 10.7187 5.26684 10.8391 5.27335 10.9628C5.27986 11.0865 5.2701 11.2069 5.24406 11.3241L4.18937 15.4843C4.17635 15.5233 4.17635 15.5624 4.18937 15.6015C4.20239 15.6405 4.22192 15.6666 4.24796 15.6796C4.26098 15.6926 4.27401 15.7024 4.28703 15.7089C4.30005 15.7154 4.31307 15.7187 4.32609 15.7187C4.33911 15.7187 4.35213 15.7187 4.36515 15.7187C4.37817 15.7187 4.3977 15.7121 4.42375 15.6991L8.07609 13.3749C8.18025 13.3098 8.29093 13.261 8.40812 13.2284C8.52531 13.1959 8.6425 13.1796 8.75968 13.1796C8.87687 13.1796 8.99406 13.1959 9.11125 13.2284C9.22843 13.261 9.33911 13.3098 9.44328 13.3749Z" fill="black"/>
</svg>
